<svg xmlns="http://www.w3.org/2000/svg" width="24747.18" height="4860" viewBox="0 0 24747.18 4860">
  <g id="Layer_x0020_1" transform="translate(0.182)">
    <g id="_1713362585344">
      <path id="Path_135" data-name="Path 135" d="M8157,3480H6649q-349.5,0-645-159-319.5-172.5-438-549c-78-251-92-526-39-827q76.5-447,317-810,264-393,640-575c138-65,268-110,389-137,121-26,257-40,407-40H8678l-95,549H7291c-115,0-214,15-298,46-83,31-170,86-261,166-90,80-157,157-200,232-42,76-73,169-93,281H8474l-95,549H6344c-18,100-20,188-6,263,13,75,49,153,104,232,56,80,118,140,186,182,69,41,154,62,258,62H8250Z" fill="#f37440"/>
      <path id="Path_136" data-name="Path 136" d="M11090,3480H9971q-490.5,0-768-111c-235-94-386-256-455-486q-39-133.5-42-255c-2-81,6-174,24-281L9072,383h796L9531,2321c-15,88-18,166-9,232s34,132,76,197c57,94,132,156,224,186,92,29,214,44,364,44h991Z" fill="#f37440"/>
      <path id="Path_137" data-name="Path 137" d="M14060,3480H12552q-349.5,0-645-159-319.5-172.5-437-549c-79-251-92-526-40-827q78-447,318-810,262.5-393,639-575c138-65,268-110,389-137,121-26,257-40,407-40h1398l-95,549H13194c-115,0-214,15-298,46-83,31-170,86-261,166-90,80-157,157-199,232-43,76-74,169-93,281h2034l-95,549H12247c-17,100-19,188-6,263,14,75,49,153,104,232,56,80,118,140,186,182,69,41,155,62,259,62h1364Z" fill="#f37440"/>
      <path id="Path_138" data-name="Path 138" d="M17025,3480H15658c-139,0-272-19-401-58q-373.5-118.5-529-548-139.5-390-50-907,87-499.5,340-885,277.5-424.5,680-579,313.5-120,618-120h1239l-103,593H16164q-313.5,0-515,341-156,265.5-231,694-63,363,35,615c74,198,211,296,408,296h1261Z" fill="#f37440"/>
      <path id="Path_139" data-name="Path 139" d="M20909,1927q-157.5,903-725,1292-462,313.5-1240,314-862.5,0-1211-363-382.5-397.5-229-1278,126-721.5,598-1124,514.5-438,1386-438,960,0,1280,420Q21048.5,1122,20909,1927Zm-785-18q79.5-454.5-90-725c-128-201-350-301-669-301-313,0-567,108-764,323q-246,270-321,703-87,501,30,739,163.5,331.5,761,332,504,0,764-323C19970,2489,20067,2240,20124,1909Z" fill="#f37440"/>
      <path id="Path_140" data-name="Path 140" d="M24209,3480h-982L22130,1188l-399,2292h-738l538-3097h995l1065,2323,404-2323h752Z" fill="#f37440"/>
      <path id="Path_141" data-name="Path 141" d="M959,3684c-11-18-23-31-35-49-130-188-230-374-306-593-26-74-60-173-74-254-33-80-59-378-63-475-21-449,108-924,321-1292,116-201,204-306,347-466l102-101c34-29,67-62,108-96,147-121,235-174,401-270,56-32,120-58,178-88-38,3-112,24-152,35-165,46-257,85-411,154-174,77-419,243-564,376-95,88-193,187-275,290C298,1155,133,1489,52,1876-71,2464,26,3061,316,3577c14,24,65,107,71,120,6,2,7,8,13,17,57,87,118,165,186,245,51,60,102,116,159,171,628,599,1543,833,2396,569,67-21,128-45,191-67-26-2-105,14-141,18-148,17-306,20-454,9-463-31-916-202-1278-475-17-12-29-22-45-34-7-6-14-12-23-19-6-4-5-3-11-9l-5-5-2-3c-30-11-135-117-167-149C1155,3914,997,3747,959,3684ZM1966,2602c11-53,57-143,81-189,59-114,140-217,225-305a376.341,376.341,0,0,1,35-34c11-10,21-21,34-31,24-20,45-39,72-59,195-147,470-269,790-270,444-1,824,208,1065,526,62,81,160,243,186,345,13,11,48,157,54,188,84,404-32,828-296,1131-20,23-40,43-60,64-19,19-42,39-60,58,42-23,97-66,130-95,82-71,156-144,220-231,173-233,283-514,283-843,0-1058-1116-1724-2046-1244-299,154-514,400-647,706-33,76-91,263-92,356Zm-269,490c21,52,66,139,74,160,2-4-36-142-40-162-41-193-46-380-20-574,50-370,232-713,497-964,174-165,401-306,659-382,493-145,968-52,1345,182,174,108,320,247,435,398,139,183,203,331,276,554,2-51-18-154-29-205-52-238-154-460-297-651-32-43-54-65-80-98-44-56-100-103-147-150-9-9-19-16-31-27C3921,807,3290,678,2750,850c-169,54-337,135-476,238-30,22-124,95-147,117-61,60-103,97-159,165-95,116-160,211-232,358-103,211-178,503-163,780C1584,2729,1617,2896,1697,3092Zm14,669c-18-8-70-80-86-102-14-19-26-35-38-54-12-17-30-38-38-58l-7-7a67.262,67.262,0,0,1-7-11c-143-229-234-462-282-735-54-308-28-645,59-926,125-405,334-690,624-947,21-19,49-40,72-58,38-29,208-152,237-154,3-3,2-3,6-6,8-6,34-19,44-24,121-65,254-118,386-155,460-131,999-93,1426,123l89,46c9,2,5,7,8-2-7,0-46-35-56-43-64-47-107-79-178-122C3485,231,2906,148,2353,306c-100,29-200,66-291,108-115,55-153,80-257,143-100,61-147,110-226,173l-53,47c-56,52-97,101-146,153-33,36-58,72-89,111-30,38-54,76-82,118-52,77-99,168-141,259-166,362-218,785-148,1187,5,27,35,153,33,165,7,8,8,19,11,29,2,8,6,20,9,29,14,50,38,121,57,167,61,146,118,262,207,392,100,145,111,147,201,250,54,61,129,128,194,182,125,103,260,188,408,259,5,3,8,4,16,7l-140-113C1884,3946,1719,3787,1711,3761Z" fill="#096799" fill-rule="evenodd"/>
      <path id="Path_143" data-name="Path 143" d="M5919,4476h276c-1,5-2,12-4,20-3,23-5,38-7,46-19,98-61,174-128,228-66,54-150,81-253,81-57,0-106-8-147-25-42-17-76-42-103-76-26-34-44-73-53-118-9-46-8-94,2-146s28-101,54-145c27-45,61-84,103-118a443.3,443.3,0,0,1,134-76,452.176,452.176,0,0,1,151-26q82.5,0,141,30c40,20,72,51,98,92l-94,62c-19-27-41-47-68-61-27-13-59-20-95-20-75,0-142,25-199,73s-92,111-107,188c-15,79-4,143,34,191,39,49,96,74,172,74,64,0,118-15,161-45s69-71,79-123l2-10H5901Zm856,357,134-696h389l-19,96H7004l-34,174h276l-19,100H6951l-43,224h275l-19,102Zm1246-274h194l-41-158c-2-11-4-22-6-35-1-13-3-28-4-44q-10.5,22.5-21,42c-7,14-13,26-20,37Zm260,274-44-180H7962l-116,180H7727l476-724,198,724Zm904-400h20c60,0,101-7,123-20,23-14,37-39,44-75,8-38,2-65-16-81-18-15-55-23-112-23h-21Zm-24,88-60,312H8995l134-696h157c47,0,82,3,106,9q37.5,9,60,30a124.068,124.068,0,0,1,37,65c7,27,7,56,1,88-11,55-32,99-65,130-33,32-77,51-131,57l179,317H9345l-171-312Zm909,312,134-696h113l-134,696Zm805,0,139-724,360,426c10,12,19,25,29,38,10,14,20,29,30,46l93-482h104l-139,723-367-433c-10-12-19-24-28-37a337.6,337.6,0,0,1-24-41l-93,484Zm1764-357h275c-1,5-2,12-3,20-3,23-6,38-7,46-19,98-62,174-128,228-67,54-151,81-253,81-57,0-106-8-148-25-41-17-75-42-102-76s-45-73-53-118c-9-46-9-94,1-146s28-101,55-145c26-45,60-84,102-118,40-33,85-58,134-76,49-17,100-26,151-26,55,0,102,10,142,30,39,20,72,51,98,92l-95,62a180.222,180.222,0,0,0-68-61c-26-13-58-20-95-20-75,0-141,25-198,73s-93,111-108,188c-15,79-3,143,35,191,38,49,95,74,171,74,65,0,119-15,161-45,43-30,70-71,80-123l2-10h-168Zm1784-243-116,600h-113l116-600h-185l18-96h482l-18,96Zm683,600,134-696h113l-49,257h342l49-257h114l-134,696h-113l65-338h-343l-65,338Zm1257,0,134-696h388l-18,96h-276l-33,174h275l-19,100h-275l-44,224h276l-20,102Zm1634,0,134-696h388l-18,96h-276l-33,173h275l-19,100h-275l-63,327Zm1170-696h112l-81,422c-12,63-7,110,16,142,23,31,63,47,121,47,57,0,103-16,138-47,36-32,59-79,71-142l81-422h113l-83,433c-18,94-55,164-112,211-56,47-132,70-228,70s-163-23-201-70c-38-46-48-117-30-211Zm1462,96-115,600h-113l115-600h-185l19-96h482l-19,96Zm815-96h111l-81,422c-12,63-7,110,16,142,23,31,64,47,121,47,58,0,104-16,139-47,35-32,59-79,71-142l81-422h113l-83,433c-18,94-56,164-112,211-57,47-133,70-228,70-96,0-163-23-201-70-39-46-49-117-30-211Zm1311,296h21c60,0,101-7,123-20,22-14,37-39,44-75,7-38,2-65-16-81-18-15-56-23-113-23h-20Zm-24,88-60,312h-105l133-696h158c46,0,82,3,106,9s44,16,60,30c18,17,30,38,37,65s7,56,1,88c-11,55-33,99-66,130-33,32-76,51-130,57l179,317h-128l-172-312Zm908,312,134-696h388l-18,96h-275l-34,174h275l-19,100h-275l-43,224h275l-20,102Z" fill="#096799"/>
    </g>
  </g>
</svg>
